<svg width="47" height="24" viewBox="0 0 47 24" fill="none" xmlns="http://www.w3.org/2000/svg">
<g clip-path="url(#clip0_878_3695)">
<path d="M36.2295 9.04321C35.3505 9.04321 34.6367 8.34662 34.6367 7.48695C34.6367 6.62728 35.3505 5.93132 36.2295 5.93132C37.1084 5.93132 37.8222 6.62728 37.8222 7.48695C37.8222 8.34662 37.1137 9.04321 36.2295 9.04321ZM36.9184 14.8015C36.6494 15.8101 34.4806 18.1972 33.6062 19.0472C32.7371 19.8973 27.3097 21.4869 24.8086 22.1784C22.3075 22.8698 14.223 22.4422 13.4073 22.1206C12.5963 21.8034 10.965 20.7422 10.7985 20.1085C10.6326 19.4742 11.2334 18.4084 11.1211 17.9904C11.0088 17.568 9.60213 16.0259 8.35158 16.2371C7.1056 16.449 4.44384 20.0552 3.95015 20.0552C3.45711 20.0552 3.19329 19.2052 3.03199 18.5663C2.86547 17.9327 1.88853 17.0826 1.67368 15.7569C1.45427 14.4317 2.16215 11.992 2.4312 11.5163C2.6996 11.0412 3.84305 10.7195 4.38964 10.9879C4.93231 11.2524 5.90924 12.1025 6.39771 12.53C6.88618 12.9525 7.92188 13.2215 8.35158 13.2215C8.7323 13.2215 9.10844 13.1111 9.70466 12.6931C10.3054 12.2707 9.92473 9.72055 9.97305 8.34212C10.0273 6.9637 12.8555 5.58527 13.886 4.89895C14.9217 4.20685 17.9603 3.46274 19.2644 3.04479C20.5639 2.62234 26.1617 2.35333 28.8731 2.93436C31.5838 3.52053 31.4277 6.59389 32.0187 7.70844C32.6149 8.82236 34.1927 9.83097 35.0618 10.412C35.9265 10.9975 37.1822 13.807 36.9034 14.8111H36.9086L36.9184 14.8015ZM46.3266 12.8035C46.0824 12.3284 44.3969 12.6835 44.3969 12.6835L44.9977 12.2129C44.9977 12.2129 45.3595 12.0928 46.087 11.6267C46.8099 11.1561 46.087 11.6267 45.9648 11.0361C45.8427 10.4454 44.0358 10.2104 43.5519 9.61975C43.0732 9.02909 40.7824 7.02597 39.2138 5.72973C37.6459 4.43284 35.4726 1.60409 29.0827 0.302705C22.6889 -0.998677 16.4165 2.29555 15.2097 2.65123C14.0081 3.00177 13.8814 3.24189 12.7968 3.47687C12.0739 3.63545 11.4731 3.71249 10.9892 3.71249C10.2663 3.71249 9.54336 4.18309 8.57622 4.6537C7.60908 5.1243 7.72597 5.71496 7.2473 6.77173C6.76406 7.833 7.84809 12.1936 7.84809 12.1936L7.24273 11.4829C6.64194 10.7767 3.98933 8.06348 3.14431 8.06348C2.29929 8.06348 2.66041 8.76971 1.57638 9.71092C0.487129 10.6521 0.125349 13.3608 0.00323252 16.1941C-0.118884 19.0183 3.25663 21.8516 3.73987 22.3222C4.22377 22.7928 4.46343 22.3222 4.94668 22.0866C5.43057 21.8464 8.44888 17.1404 8.44888 17.1404C8.44888 17.1404 8.32676 17.7311 8.08775 18.4367C7.84352 19.148 7.72597 19.148 8.20987 21.2654C8.69311 23.3886 9.17244 22.7979 10.1396 23.3886C11.1067 23.9792 12.196 23.5086 16.4165 23.7436C20.637 23.9837 22.5667 24.2194 27.8765 23.6332C33.1863 23.0477 35.9611 21.5152 38.1343 20.1033C40.3037 18.6915 43.4441 15.1566 43.4441 15.1566L44.4067 14.8015C45.3693 14.4458 45.6135 14.2109 46.0968 13.7403C46.4193 13.4276 46.5023 13.1111 46.341 12.799V12.7894L46.3266 12.8035Z" fill="#24528F"/>
<path d="M24.1821 11.608C23.806 11.608 23.5029 11.3101 23.5029 10.9454C23.5029 10.5801 23.806 10.2822 24.1821 10.2822C24.5582 10.2822 24.8613 10.5756 24.8613 10.9454C24.8613 11.3152 24.5582 11.608 24.1821 11.608ZM23.8843 15.2245C23.2685 15.8293 22.2132 16.54 20.9045 17.2796C19.5952 18.0243 18.9063 18.4179 17.5682 18.3794C16.2249 18.346 13.1034 17.7746 12.3753 17.2796C11.6524 16.7852 10.4508 15.7188 10.089 15.618C9.72793 15.5076 9.76711 15.4787 9.54247 15.4787C9.25383 15.4787 8.37942 16.4681 7.79822 16.6844C7.21703 16.9002 6.52351 17.1454 6.27405 16.7949C6.02002 16.4392 5.72681 15.4113 5.91293 14.7391C6.09316 14.0669 6.31323 13.3222 6.38637 13.0724C6.45951 12.8233 7.04136 12.5395 7.5442 12.7893C8.05225 13.0345 8.44799 13.4281 9.10233 13.5674C9.75732 13.7112 10.0845 13.6393 10.1916 12.8952C10.3039 12.1505 9.93755 11.4064 10.3725 10.8395C10.8074 10.2726 11.6818 9.67229 12.551 9.63441C13.4208 9.59589 17.2358 7.96772 18.472 8.35678C19.7075 8.75034 20.7237 9.27873 21.5928 10.1339C22.4627 10.9884 23.8112 11.6221 24.0992 12.5447C24.3872 13.4666 24.4995 14.6383 23.8791 15.2386L23.8843 15.2245ZM28.9009 13.7067C28.7788 13.457 27.9383 13.6156 27.9383 13.6059C27.9383 13.6008 28.2413 13.3562 28.2466 13.3562C28.2466 13.3466 28.4268 13.2791 28.7932 13.0294C29.1595 12.7797 28.7932 13.0056 28.7298 12.6981C28.6665 12.3668 27.7483 12.2083 27.4988 11.877C27.4499 11.8096 27.3571 11.7139 27.2448 11.5938C26.7759 11.1085 25.8819 10.3162 25.2126 9.75447C24.6849 9.31211 24.0404 8.58727 22.8486 7.94396C22.0813 7.5305 21.0998 7.1562 19.8055 6.90132C16.5469 6.25801 13.3522 7.90994 12.7077 8.1019C12.0919 8.27974 12.024 8.40494 11.4715 8.525C11.0712 8.61103 10.9537 8.63992 10.7832 8.64505H10.5481C10.1772 8.64505 9.80564 8.88517 9.3126 9.12978C8.81891 9.3699 8.87768 9.6678 8.62365 10.2006C8.36963 10.7438 8.8927 12.9382 8.87768 12.953L8.56488 12.6018C8.25273 12.2564 6.90423 10.8876 6.46931 10.921C6.17153 10.9454 6.10296 11.1374 5.97105 11.3967C5.87832 11.5887 5.77122 11.8243 5.54657 12.0644C5.02872 12.6166 4.83347 14.0091 4.78906 15.4839C4.78906 15.5558 4.78906 15.6277 4.79428 15.6996C4.9164 17.1018 6.4889 18.4468 6.76252 18.7107C7.01198 18.9508 7.12887 18.7107 7.3829 18.6099C7.64672 18.5046 9.19506 16.1753 9.22444 16.1894C9.22967 16.1946 9.17612 16.4918 9.05857 16.8475C8.98543 17.0831 8.93646 17.1647 8.98543 17.4863C9.0096 17.6642 9.06837 17.9088 9.16632 18.2837C9.42035 19.3546 9.67895 19.0663 10.1818 19.3642C10.6996 19.6711 11.2815 19.4362 13.4352 19.5562C15.6143 19.6763 16.6448 19.7822 19.3653 19.465C22.0813 19.1479 23.5278 18.346 24.6562 17.5968C25.7892 16.8526 27.3963 15.0274 27.4205 14.9747C27.4453 14.9651 27.538 14.9266 27.9044 14.7873C28.3928 14.5998 28.5202 14.4605 28.769 14.2107C29.0132 13.961 29.0132 13.961 28.8963 13.7112L28.9009 13.7067Z" fill="#24528F"/>
<path d="M16.1999 12.9092C16.0288 12.9092 15.8871 12.775 15.8871 12.6068C15.8871 12.4386 16.0243 12.3038 16.1999 12.3038C16.3756 12.3038 16.5127 12.4386 16.5127 12.6068C16.5127 12.775 16.3756 12.9092 16.1999 12.9092ZM16.3266 13.8215C16.1216 14.3165 15.7748 15.128 15.1303 15.4638C14.4851 15.8002 13.4938 16.3427 12.5756 16.2278C11.6568 16.1174 10.8947 16.093 10.5728 15.8246C10.2502 15.5556 10.0203 15.085 9.78589 15.0176C9.78589 15.0176 8.84357 15.4689 8.63786 15.6513C8.42824 15.8291 8.35967 15.7617 8.17421 15.5845C7.99332 15.4067 7.83202 14.5033 7.94435 14.2587C8.06189 14.009 8.26694 13.6969 8.50138 13.6533C8.73125 13.6058 9.12176 13.6777 9.41954 13.7881C9.71798 13.903 9.99617 13.7207 10.0203 13.471C10.0451 13.2212 9.84009 12.8662 9.97658 12.592C10.1137 12.3185 10.5042 12.1169 10.8268 12.0302C11.1487 11.9391 12.5116 11.6219 13.2887 11.8043C14.0704 11.9872 15.0375 12.28 15.3157 12.6832C15.5939 13.0915 16.5369 13.3368 16.3266 13.8311V13.8215ZM18.4131 14.1149C18.3641 13.9942 18.0075 14.052 18.0121 14.0327C18.0121 14.0282 18.1394 13.9178 18.1394 13.9127C18.1394 13.903 18.2172 13.8652 18.3687 13.7496C18.5254 13.6347 18.3687 13.7207 18.3393 13.5814C18.3099 13.4132 17.9148 13.3124 17.7973 13.1397C17.7731 13.1011 17.7287 13.053 17.6804 12.9959C17.4603 12.7461 17.0548 12.3712 16.7374 12.0977C16.4781 11.8768 16.166 11.5404 15.6135 11.2476C15.2426 11.0505 14.7737 10.8874 14.1775 10.7815C12.7559 10.5176 11.3688 11.2136 11.056 11.3054C10.7876 11.3818 10.753 11.4396 10.514 11.4922C10.3383 11.5308 10.2894 11.5404 10.211 11.55H10.1085C9.94262 11.55 9.78589 11.6604 9.56647 11.7612C9.35163 11.8672 9.37122 12.0014 9.25824 12.2274C9.13613 12.4623 9.3464 13.4035 9.32681 13.4132L9.19033 13.2694C9.04862 13.1255 8.45763 12.5535 8.27151 12.592C8.10564 12.626 8.0521 12.7602 7.97896 12.9137C7.92018 13.0389 7.87643 13.1923 7.76868 13.3464C7.56363 13.6392 7.47547 14.2632 7.48069 14.9309C7.48069 14.9649 7.48069 14.9983 7.49049 15.0317C7.55841 15.6705 8.25715 16.276 8.40865 16.4249C8.51575 16.5353 8.56995 16.4249 8.68684 16.396C8.81875 16.3575 9.49791 15.4015 9.54166 15.4259C9.55145 15.4259 9.53186 15.5601 9.49333 15.7135C9.46852 15.815 9.45415 15.8529 9.47831 15.9877C9.49333 16.0692 9.52729 16.17 9.57105 16.3331C9.69839 16.7896 9.81528 16.6746 10.0451 16.7992C10.2894 16.9385 10.5676 16.8377 11.5105 16.8904C12.4822 16.943 12.9714 16.9719 14.1677 16.823C15.3647 16.6695 16.0145 16.3048 16.5271 15.9537C17.0404 15.5986 17.7483 14.7916 17.7777 14.7197C17.7777 14.7197 17.8312 14.6908 17.9879 14.6234C18.2028 14.5322 18.2563 14.4603 18.3641 14.3454C18.4666 14.235 18.4666 14.2253 18.4229 14.1149H18.4131Z" fill="#24528F"/>
</g>
<defs>
<clipPath id="clip0_878_3695">
<rect width="47" height="24" fill="white"/>
</clipPath>
</defs>
</svg>
