<svg width="66" height="34" viewBox="0 0 66 34" fill="none" xmlns="http://www.w3.org/2000/svg">
<path d="M51.3251 12.8112C50.0798 12.8112 49.0687 11.8244 49.0687 10.6065C49.0687 9.38864 50.0798 8.40271 51.3251 8.40271C52.5703 8.40271 53.5814 9.38864 53.5814 10.6065C53.5814 11.8244 52.5777 12.8112 51.3251 12.8112ZM52.3011 20.9688C51.9199 22.3977 48.8476 25.7793 47.6088 26.9836C46.3775 28.1878 38.6888 30.4398 35.1455 31.4194C31.6023 32.3989 20.1492 31.7932 18.9937 31.3375C17.8447 30.8882 15.5338 29.3847 15.2978 28.487C15.0629 27.5884 15.914 26.0786 15.7549 25.4865C15.5957 24.888 13.603 22.7033 11.8314 23.0025C10.0663 23.3027 6.29544 28.4115 5.59605 28.4115C4.89757 28.4115 4.52382 27.2073 4.29532 26.3023C4.05941 25.4046 2.67542 24.2004 2.37105 22.3222C2.06021 20.4449 3.06305 16.9887 3.4442 16.3147C3.82443 15.6417 5.44432 15.186 6.21866 15.5662C6.98744 15.9409 8.37143 17.1451 9.06342 17.7509C9.75542 18.3494 11.2227 18.7305 11.8314 18.7305C12.3708 18.7305 12.9036 18.574 13.7483 17.9819C14.5994 17.3834 14.06 13.7708 14.1285 11.818C14.2053 9.86524 18.212 7.91247 19.6718 6.94018C21.1391 5.9597 25.4437 4.90555 27.2912 4.31345C29.1322 3.71497 37.0624 3.33388 40.9035 4.15701C44.7437 4.98741 44.5226 9.34135 45.3598 10.9203C46.2045 12.4983 48.4396 13.9272 49.6709 14.7503C50.8958 15.5798 52.6748 19.5599 52.2798 20.9825H52.2872L52.3011 20.9688ZM65.6294 18.1384C65.2834 17.4653 62.8956 17.9683 62.8956 17.9683L63.7467 17.3016C63.7467 17.3016 64.2593 17.1315 65.2899 16.4712C66.314 15.8045 65.2898 16.4712 65.1169 15.6344C64.9439 14.7976 62.384 14.4647 61.6985 13.628C61.0204 12.7912 57.775 9.95346 55.5529 8.11711C53.3317 6.27986 50.2528 2.27246 41.2005 0.428832C32.1426 -1.41479 23.2567 3.25202 21.5471 3.7559C19.8448 4.25251 19.6654 4.59267 18.1287 4.92556C17.1046 5.15022 16.2535 5.25936 15.568 5.25936C14.5439 5.25936 13.5198 5.92605 12.1496 6.59274C10.7795 7.25943 10.9451 8.0962 10.267 9.59329C9.58242 11.0967 11.1181 17.2743 11.1181 17.2743L10.2605 16.2674C9.40942 15.267 5.65155 11.4233 4.45444 11.4233C3.25732 11.4233 3.76892 12.4238 2.23321 13.7571C0.690099 15.0905 0.177578 18.9278 0.00457942 22.9416C-0.168419 26.9426 4.61356 30.9564 5.29816 31.6231C5.98367 32.2898 6.3232 31.6231 7.00779 31.2893C7.69331 30.9491 11.9692 24.2822 11.9692 24.2822C11.9692 24.2822 11.7962 25.119 11.4576 26.1186C11.1116 27.1264 10.9451 27.1264 11.6306 30.126C12.3152 33.1338 12.9943 32.2971 14.3644 33.1338C15.7345 33.9706 17.2776 33.3039 23.2567 33.6368C29.2358 33.977 31.9696 34.3108 39.4918 33.4804C47.014 32.6509 50.9448 30.4798 54.0237 28.4797C57.0969 26.4797 61.5459 21.4718 61.5459 21.4718L62.9095 20.9688C64.2731 20.4649 64.6191 20.132 65.3037 19.4654C65.7607 19.0224 65.8782 18.574 65.6497 18.132V18.1183L65.6294 18.1384Z" fill="#D62C29"/>
<path d="M34.2598 16.4443C33.7269 16.4443 33.2977 16.0223 33.2977 15.5057C33.2977 14.9882 33.7269 14.5661 34.2598 14.5661C34.7927 14.5661 35.2219 14.9818 35.2219 15.5057C35.2219 16.0296 34.7927 16.4443 34.2598 16.4443ZM33.838 21.5677C32.9656 22.4245 31.4706 23.4314 29.6166 24.4791C27.7617 25.5342 26.7857 26.0917 24.8901 26.0372C22.9871 25.9899 18.565 25.1804 17.5335 24.4791C16.5094 23.7788 14.8072 22.2681 14.2947 22.1253C13.7831 21.9688 13.8386 21.9279 13.5203 21.9279C13.1114 21.9279 11.8727 23.3295 11.0493 23.636C10.2259 23.9416 9.24346 24.2891 8.89007 23.7924C8.53019 23.2886 8.11481 21.8324 8.37847 20.8801C8.63381 19.9278 8.94557 18.8728 9.04919 18.519C9.1528 18.1661 9.97709 17.7641 10.6894 18.1179C11.4092 18.4653 11.9698 19.0229 12.8968 19.2202C13.8247 19.424 14.2882 19.3221 14.4399 18.2679C14.599 17.2129 14.08 16.1587 14.6962 15.3556C15.3123 14.5525 16.551 13.7021 17.7824 13.6484C19.0147 13.5939 24.4192 11.2873 26.1705 11.8385C27.9208 12.396 29.3603 13.1445 30.5917 14.356C31.824 15.5666 33.7343 16.4643 34.1423 17.7713C34.5503 19.0774 34.7094 20.7373 33.8306 21.5877L33.838 21.5677ZM40.9448 19.4176C40.7718 19.0638 39.5811 19.2884 39.5811 19.2748C39.5811 19.2675 40.0104 18.921 40.0178 18.921C40.0178 18.9073 40.2731 18.8118 40.7921 18.458C41.3111 18.1042 40.7921 18.4244 40.7024 17.9887C40.6127 17.5194 39.3119 17.2947 38.9585 16.8254C38.8892 16.7299 38.7578 16.5944 38.5987 16.4243C37.9344 15.7367 36.6679 14.6143 35.7197 13.8185C34.9722 13.1918 34.0591 12.165 32.3707 11.2536C31.2837 10.6679 29.8932 10.1376 28.0596 9.77654C23.4432 8.86519 18.9175 11.2054 18.0044 11.4774C17.132 11.7293 17.0358 11.9067 16.2531 12.0767C15.686 12.1986 15.5195 12.2396 15.2781 12.2468H14.945C14.4195 12.2468 13.8932 12.587 13.1947 12.9335C12.4953 13.2737 12.5785 13.6957 12.2187 14.4506C11.8588 15.2201 12.5998 18.3289 12.5785 18.3498L12.1354 17.8523C11.6932 17.363 9.78281 15.4238 9.16668 15.4711C8.74482 15.5057 8.64768 15.7776 8.46081 16.1451C8.32944 16.417 8.17772 16.7508 7.85947 17.091C7.12585 17.8732 6.84924 19.846 6.78633 21.9352C6.78633 22.037 6.78633 22.1389 6.79373 22.2408C6.96673 24.2272 9.19443 26.1327 9.58206 26.5065C9.93546 26.8467 10.1011 26.5065 10.4609 26.3637C10.8347 26.2145 13.0282 22.9147 13.0698 22.9348C13.0772 22.942 13.0013 23.3631 12.8348 23.867C12.7312 24.2008 12.6618 24.3163 12.7312 24.772C12.7654 25.024 12.8487 25.3705 12.9875 25.9017C13.3473 27.4188 13.7137 27.0104 14.426 27.4324C15.1597 27.8672 15.9839 27.5343 19.035 27.7043C22.1222 27.8744 23.582 28.0245 27.4361 27.5752C31.2837 27.1259 33.3328 25.9899 34.9315 24.9285C36.5366 23.8743 38.8133 21.2885 38.8475 21.2139C38.8827 21.2003 39.014 21.1457 39.533 20.9483C40.225 20.6828 40.4054 20.4854 40.7579 20.1316C41.1039 19.7778 41.1039 19.7778 40.9383 19.424L40.9448 19.4176Z" fill="#D62C29"/>
<path d="M22.952 18.2881C22.7097 18.2881 22.5089 18.0981 22.5089 17.8598C22.5089 17.6215 22.7032 17.4305 22.952 17.4305C23.2009 17.4305 23.3952 17.6215 23.3952 17.8598C23.3952 18.0981 23.2009 18.2881 22.952 18.2881ZM23.1315 19.5806C22.841 20.2818 22.3498 21.4315 21.4367 21.9072C20.5227 22.3838 19.1183 23.1523 17.8176 22.9895C16.5159 22.8331 15.4363 22.7985 14.9802 22.4183C14.5232 22.0372 14.1976 21.3706 13.8654 21.2751C13.8654 21.2751 12.5305 21.9145 12.2391 22.1728C11.9421 22.4247 11.845 22.3292 11.5822 22.0782C11.326 21.8262 11.0975 20.5465 11.2566 20.2C11.4231 19.8462 11.7136 19.4041 12.0457 19.3423C12.3714 19.275 12.9246 19.3769 13.3464 19.5333C13.7692 19.6961 14.1633 19.4378 14.1976 19.084C14.2327 18.7302 13.9422 18.2272 14.1356 17.8388C14.3299 17.4514 14.8831 17.1658 15.3401 17.043C15.7962 16.9138 17.7269 16.4645 18.8278 16.7228C19.9352 16.9821 21.3053 17.3968 21.6994 17.968C22.0935 18.5465 23.4294 18.8939 23.1315 19.5942V19.5806ZM26.0873 19.9963C26.0179 19.8253 25.5128 19.9071 25.5193 19.8798C25.5193 19.8735 25.6997 19.717 25.6997 19.7097C25.6997 19.6961 25.8098 19.6424 26.0244 19.4787C26.2464 19.3159 26.0244 19.4378 25.9828 19.2404C25.9411 19.0021 25.3814 18.8593 25.2149 18.6147C25.1807 18.5601 25.1178 18.4919 25.0493 18.4109C24.7375 18.0571 24.163 17.526 23.7134 17.1385C23.3461 16.8256 22.9039 16.349 22.1213 15.9343C21.5958 15.655 20.9316 15.424 20.0869 15.274C18.0729 14.9001 16.108 15.8861 15.6648 16.0161C15.2846 16.1244 15.2356 16.2062 14.897 16.2808C14.6481 16.3354 14.5787 16.349 14.4677 16.3627H14.3225C14.0875 16.3627 13.8654 16.5191 13.5546 16.6619C13.2502 16.812 13.278 17.0021 13.1179 17.3222C12.9449 17.6551 13.2428 18.9885 13.2151 19.0021L13.0217 18.7984C12.821 18.5947 11.9837 17.7843 11.7201 17.8388C11.4851 17.887 11.4092 18.0771 11.3056 18.2945C11.2224 18.4719 11.1604 18.6893 11.0077 18.9075C10.7172 19.3223 10.5923 20.2064 10.5997 21.1523C10.5997 21.2005 10.5997 21.2478 10.6136 21.2951C10.7098 22.2001 11.6997 23.0577 11.9144 23.2688C12.0661 23.4252 12.1429 23.2688 12.3085 23.2278C12.4953 23.1733 13.4575 21.819 13.5194 21.8535C13.5333 21.8535 13.5056 22.0436 13.451 22.261C13.4158 22.4047 13.3955 22.4584 13.4297 22.6494C13.451 22.7649 13.4991 22.9077 13.5611 23.1387C13.7415 23.7854 13.9071 23.6226 14.2327 23.799C14.5787 23.9964 14.9728 23.8536 16.3087 23.9282C17.6853 24.0027 18.3782 24.0437 20.073 23.8327C21.7688 23.6153 22.6893 23.0987 23.4155 22.6012C24.1427 22.0982 25.1455 20.9549 25.1871 20.853C25.1871 20.853 25.263 20.8121 25.485 20.7166C25.7894 20.5874 25.8653 20.4856 26.0179 20.3228C26.1632 20.1663 26.1632 20.1527 26.1012 19.9963H26.0873Z" fill="#D62C29"/>
</svg>
