<svg width="161" height="81" viewBox="0 0 161 81" fill="none" xmlns="http://www.w3.org/2000/svg">
<path d="M55.5235 59.1621C55.8677 59.0545 56.1857 58.9112 56.4961 58.7338C56.1875 58.9017 55.8621 59.0432 55.5235 59.1621ZM46.247 59.7035C46.1247 59.6393 45.9817 59.5808 45.835 59.5167C45.6788 59.4582 45.5114 59.413 45.3346 59.379C45.2461 59.345 45.1427 59.3149 45.0392 59.2715C45.1427 59.3149 45.2461 59.3601 45.3346 59.3903C45.517 59.4243 45.6826 59.4696 45.835 59.528C45.9817 59.5922 46.1247 59.6506 46.247 59.7148H46.4539C46.39 59.7091 46.3166 59.7091 46.247 59.7091V59.7035Z" fill="white"/>
<path d="M60.4524 57.8038C60.4185 57.6208 60.394 57.4397 60.3639 57.2624V57.2473C60.3639 57.2039 60.3583 57.1643 60.3489 57.119C60.3432 57.0794 60.3338 57.0492 60.3244 57.0153C60.3244 57.0002 60.3244 56.9964 60.3188 56.9813C60.2849 56.8927 60.2755 56.7983 60.2755 56.7097C60.1871 56.4343 60.1137 56.1494 60.0686 55.8438C60.0253 55.5382 59.999 55.2382 59.999 54.9326C59.999 54.7855 60.0178 54.6176 60.0422 54.4346C60.0761 54.2516 60.1062 54.0705 60.1307 53.8932L57.5195 51.3937C56.577 51.1824 55.6044 50.9956 54.6129 50.8221C53.6215 50.6542 52.6207 50.5561 51.6142 50.5259C51.3941 50.5014 51.1966 50.4825 50.9953 50.4825H50.3763C48.6625 50.4825 46.9844 50.7032 45.3346 51.1428C43.6847 51.5804 42.1872 52.3784 40.844 53.5348C40.908 53.6574 40.9418 53.7951 40.9418 53.9441V54.5403C40.9418 54.9345 40.9023 55.3382 40.8233 55.7514C40.7443 56.1607 40.6615 56.5588 40.5731 56.953C40.4753 57.3813 40.4019 57.7944 40.3229 58.2075C40.3229 58.2226 40.3173 58.232 40.3173 58.2471C40.2834 58.4395 40.2589 58.6263 40.2345 58.8187C40.2194 59.0206 40.21 59.2168 40.21 59.4186V59.6016C40.21 60.06 40.3078 60.4731 40.4941 60.8561C40.528 60.9202 40.5637 60.9787 40.5976 61.0428C40.6371 61.1013 40.6766 61.1504 40.7161 61.2107C40.7349 61.2353 40.7556 61.2654 40.78 61.2937C40.7951 61.3277 40.8233 61.3579 40.8496 61.3824C41.0942 61.6578 41.4479 61.8936 41.905 62.0823C42.0875 62.1521 42.2832 62.2256 42.4995 62.2841C43.6584 62.7369 44.8699 63.0859 46.1228 63.333C47.3738 63.5782 48.6456 63.7027 49.9267 63.7027C51.8456 63.7027 53.7118 63.3971 55.5178 62.7916C57.3144 62.1766 58.8759 61.207 60.1909 59.8676C60.3131 59.5959 60.3978 59.3318 60.4411 59.0696C60.4843 58.8093 60.505 58.5716 60.505 58.366C60.505 58.1792 60.49 57.9962 60.4618 57.8151L60.4524 57.8057V57.8038ZM58.3604 57.1096C58.2776 57.2322 58.1742 57.3548 58.065 57.4737C58.0218 57.5284 57.9672 57.5774 57.9277 57.6208C57.8581 57.7001 57.781 57.7774 57.702 57.8472C57.4612 58.0792 57.2053 58.2811 56.9419 58.4622C56.799 58.5659 56.6522 58.6546 56.4961 58.7338C56.1875 58.9055 55.8621 59.0489 55.5235 59.1621C55.356 59.2205 55.1754 59.2696 54.9929 59.3186C54.6393 59.4073 54.2762 59.4865 53.9075 59.5507C53.6366 59.6054 53.3581 59.6488 53.0835 59.6884C52.2595 59.811 51.4148 59.8751 50.5513 59.8959H49.6822C49.3774 59.8619 49.0783 59.8412 48.7848 59.8261C48.4951 59.811 48.196 59.8072 47.8968 59.8072C47.6222 59.7733 47.3475 59.7525 47.0728 59.7374C46.9299 59.7318 46.7982 59.7223 46.6609 59.7223C46.5969 59.7167 46.5235 59.7167 46.4539 59.7167H46.247C46.1247 59.6525 45.9817 59.594 45.835 59.5299C45.6788 59.4714 45.5114 59.4262 45.3346 59.3922C45.2461 59.3677 45.1427 59.3224 45.0392 59.2734C44.9846 59.2488 44.9357 59.23 44.8831 59.2092C44.8285 59.1941 44.7852 59.1753 44.7401 59.1658C44.1851 58.9791 43.6753 58.7678 43.1993 58.5018C43.141 58.4678 43.0808 58.432 43.0319 58.3943C42.9773 58.3603 42.9435 58.3301 42.8946 58.2905C42.8607 58.2566 42.8306 58.2264 42.8062 58.1924C42.7667 58.1528 42.7422 58.1226 42.7177 58.0736C42.7121 58.0736 42.7121 58.0679 42.7121 58.0679C42.5654 57.8604 42.492 57.6152 42.492 57.3303V57.1473C42.492 57.0888 42.4976 57.0191 42.5164 56.9398C42.5315 56.87 42.5559 56.7965 42.5804 56.7323C43.3762 56.2796 44.2698 55.974 45.2612 55.8212C46.2526 55.674 47.2741 55.5948 48.3088 55.5948C48.8582 55.5948 49.4131 55.6099 49.9531 55.6382C50.508 55.6721 51.0423 55.7023 51.5634 55.7268C51.9566 55.7268 52.3479 55.7419 52.7317 55.7702C53.1098 55.8042 53.4879 55.8136 53.8567 55.8136C54.2254 56.0004 54.5979 56.1287 54.9817 56.2079C55.3598 56.2777 55.7661 56.3513 56.1988 56.4097H56.2383C56.6353 56.4682 57.0341 56.538 57.4122 56.6172C57.7904 56.6965 57.986 56.7248 57.986 56.7248L58.4864 56.9568C58.4469 57.0115 58.4168 57.0549 58.3642 57.1039L58.3604 57.1096Z" fill="white"/>
<path d="M125.015 60.0977C124.957 59.6695 124.872 59.2319 124.784 58.7791C124.75 58.5339 124.72 58.3018 124.665 58.0755C124.66 58.0415 124.65 58.0113 124.65 57.9774C124.635 57.8981 124.616 57.8302 124.607 57.751C124.592 57.6718 124.583 57.5944 124.573 57.519C124.568 57.4643 124.558 57.4114 124.554 57.3567C124.52 57.1492 124.496 56.9191 124.485 56.6776C124.466 56.4324 124.46 56.206 124.46 55.9928C124.46 55.5646 124.504 55.1515 124.603 54.7383C124.692 54.329 124.844 53.9555 125.06 53.6253C124.481 52.8972 123.745 52.3803 122.856 52.0803C121.971 51.771 121.059 51.505 120.107 51.2579C120.073 51.2239 120.028 51.2031 119.97 51.1881C119.906 51.173 119.847 51.1692 119.787 51.1692C119.729 51.1352 119.669 51.1107 119.625 51.0994C119.571 51.0805 119.556 51.0805 119.556 51.0805H119.458C119.095 51.0164 118.732 50.9768 118.363 50.9617C117.994 50.9428 117.628 50.9372 117.268 50.9372C116.96 50.9372 116.664 50.9428 116.371 50.9617C116.081 50.9768 115.776 51.0013 115.474 51.0258C113.338 51.2126 111.276 51.7446 109.288 52.6199C107.315 53.5008 105.764 54.7912 104.639 56.5173C104.634 56.5324 104.621 56.5418 104.615 56.5569C104.429 56.8908 104.301 57.2662 104.227 57.6944C103.544 61.4013 105.219 63.4537 108.601 64.0479C108.846 64.0819 109.102 64.0913 109.382 64.1121C109.653 64.131 109.916 64.1366 110.163 64.1366C111.959 64.1366 113.737 63.782 115.474 63.0632C117.221 62.3445 118.792 61.4937 120.19 60.4844C120.224 60.509 120.254 60.5392 120.278 60.5637C120.312 60.5882 120.337 60.6071 120.357 60.6335C120.513 60.7806 120.602 60.9391 120.647 61.1051C120.711 61.3371 120.745 61.5729 120.745 61.8144V62.6803C120.745 62.9255 120.779 63.1575 120.852 63.3839C120.91 63.5556 121.008 63.699 121.142 63.831C121.185 63.8744 121.24 63.914 121.288 63.9536H121.789C122.799 63.9536 123.552 63.8159 124.037 63.5348C124.204 63.4367 124.342 63.3273 124.445 63.2047C124.607 63.018 124.741 62.8104 124.838 62.5841C124.872 62.5143 124.902 62.4369 124.927 62.352C125.034 62.037 125.089 61.6918 125.089 61.3183C125.089 60.924 125.064 60.5165 125 60.0883L125.015 60.094V60.0977ZM121.123 55.0175C121.147 55.7759 120.863 56.3569 120.274 56.7493C120.054 56.8964 119.823 57.0398 119.582 57.1681H119.577C119.543 57.187 119.513 57.2077 119.479 57.2228C119.36 57.2926 119.247 57.3605 119.125 57.4152C119.027 57.4699 118.939 57.519 118.841 57.5586C118.674 57.6472 118.497 57.7265 118.326 57.8038C118.169 57.868 118.021 57.9264 117.868 57.9906C117.712 58.0491 117.56 58.1094 117.411 58.1622C117.255 58.2264 117.106 58.2905 116.954 58.349C116.875 58.383 116.807 58.4131 116.734 58.4377C116.664 58.4716 116.597 58.5018 116.542 58.5263C116.076 58.5603 115.615 58.6301 115.142 58.7338C114.666 58.8414 114.209 58.9546 113.743 59.0791C113.193 59.2356 112.648 59.3696 112.099 59.4922C111.544 59.6148 110.994 59.6752 110.439 59.6752C110.238 59.6752 110.046 59.6695 109.85 59.6412C109.659 59.6261 109.463 59.5978 109.271 59.5582C109.173 59.5393 109.079 59.5148 108.981 59.4884C108.692 59.4092 108.392 59.296 108.097 59.1243H108.103C108.265 58.9678 108.432 58.8282 108.599 58.6904L108.614 58.6754C109.267 58.1038 109.96 57.5831 110.695 57.0907C110.878 56.9625 111.064 56.8455 111.25 56.721C111.741 56.3965 112.251 56.0966 112.776 55.8061C114.518 54.8515 116.35 54.3686 118.273 54.3686C118.73 54.3686 119.197 54.3931 119.672 54.4573C120.143 54.5157 120.374 54.5459 120.374 54.5459C120.374 54.5459 120.624 54.6252 121.115 54.7723V55.0043L121.121 55.0194L121.123 55.0175Z" fill="white"/>
<path d="M79.6299 58.0358V58.4452C79.6299 58.5678 79.6243 58.7055 79.6055 58.8395C79.5904 58.9772 79.5866 59.1055 79.5866 59.2281C79.4644 59.8336 79.233 60.4052 78.8943 60.9353C78.8116 61.073 78.7119 61.1956 78.6197 61.3088C78.3111 61.654 77.9123 61.9087 77.4326 62.0917C76.6669 62.5841 75.7432 62.9632 74.654 63.233C74.3831 63.3028 74.1141 63.3613 73.8337 63.4198C73.0098 63.582 72.1594 63.6707 71.2865 63.6914H70.9178C70.6431 63.6914 70.3685 63.6857 70.0976 63.6725C69.2867 63.6292 68.4778 63.516 67.6877 63.3424C67.1572 63.2349 66.6662 63.0915 66.2052 62.9236C65.9739 62.8406 65.7537 62.752 65.5336 62.6482C65.3229 62.5445 65.116 62.4407 64.9147 62.3237C64.4293 61.7182 64.0757 61.0485 63.865 60.3052C63.6543 59.562 63.5414 58.8036 63.5414 58.0509C63.5564 57.6529 63.5959 57.2643 63.6298 56.8795C63.6298 56.8644 63.6355 56.8455 63.6355 56.8361C63.6787 56.4663 63.7389 56.1079 63.8179 55.7438C63.9741 55.0006 64.1509 54.3271 64.3673 53.7215C65.7067 52.718 67.2625 51.9294 69.0158 51.3541C70.7786 50.7787 72.579 50.4882 74.4489 50.4882C75.0528 50.4882 75.6605 50.5221 76.2606 50.5768C76.8494 50.6353 77.4382 50.7447 78.0233 50.9013V51.173C78.0233 51.173 78.0666 51.2163 78.1606 51.3107C78.2491 51.3993 78.3619 51.4786 78.4842 51.5427H78.5275C78.6498 51.6012 78.7532 51.6615 78.8323 51.7257C78.9113 51.7842 78.9395 51.8936 78.9395 52.0407V52.3124C78.9395 52.7066 78.8172 53.0405 78.5764 53.316C78.3262 53.5876 77.9876 53.7253 77.5662 53.7253C77.5078 53.7593 77.4477 53.7687 77.4044 53.7687H77.2426C77.1542 53.7687 77.0752 53.7498 77.0168 53.7046C76.9529 53.6612 76.9096 53.5857 76.8795 53.4971C76.8456 53.4386 76.8155 53.3744 76.7817 53.3141C76.7478 53.2556 76.7027 53.1915 76.6443 53.1311C76.4882 53.1066 76.3358 53.0764 76.1872 53.0613C76.0311 53.0462 75.8824 53.0424 75.7301 53.0424C75.5739 53.0085 75.4215 52.999 75.2729 52.999H74.8158C72.9797 52.999 71.2564 53.4084 69.6329 54.2196C68.2972 54.8987 67.08 55.7306 65.9964 56.7399C65.765 56.9474 65.5449 57.1681 65.3248 57.3945C65.4283 57.6453 65.575 57.8661 65.7613 58.0679C65.9438 58.2698 66.1695 58.4377 66.4235 58.5905C66.9446 58.8961 67.509 59.1413 68.1166 59.3186C68.2991 59.3771 68.4891 59.4413 68.6904 59.5016C68.8823 59.5658 69.0779 59.6091 69.2642 59.6393C70.4136 59.6638 71.5273 59.5959 72.5978 59.4186C72.6034 59.4243 72.6128 59.4243 72.6166 59.4186C72.9251 59.3752 73.2355 59.3149 73.544 59.2507C74.9042 58.9659 76.238 58.6357 77.5549 58.266C77.7656 58.2075 77.9725 58.1471 78.1738 58.083C78.3751 58.0245 78.5821 57.9604 78.7928 57.9C78.915 57.8661 79.043 57.8359 79.1859 57.7812C79.3233 57.7378 79.4512 57.6982 79.5735 57.6737C79.5979 57.7963 79.6167 57.9151 79.6167 58.0377H79.6318L79.6299 58.0358Z" fill="white"/>
<path d="M64.3052 58.0396C64.3202 57.6454 64.3597 57.2567 64.3936 56.8776C64.3503 57.2567 64.324 57.6454 64.3052 58.0396Z" fill="white"/>
<path d="M101.144 59.2507C101.129 59.147 101.089 59.0243 101.025 58.9055C100.574 58.9942 100.117 59.0923 99.6503 59.2017C99.1931 59.3054 98.7379 59.4092 98.2751 59.4978C97.7841 59.6167 97.3024 59.7299 96.8321 59.8317C96.3562 59.9506 95.899 60.0242 95.4381 60.0826C94.8587 60.2053 94.2793 60.2939 93.7149 60.3581C93.1449 60.4165 92.5899 60.4467 92.0462 60.4467C91.2805 60.4467 90.5092 60.3675 89.7492 60.2147C89.5573 60.1751 89.3711 60.1317 89.1792 60.077C88.6204 59.9204 88.0749 59.6978 87.55 59.3979C87.55 59.3979 87.5556 59.3979 87.5556 59.3922C87.7814 59.2243 88.0768 59.1074 88.4436 59.0187C88.5019 59.0036 88.5659 58.9942 88.6298 58.9791C88.6938 58.9602 88.7578 58.9451 88.8311 58.9357C89.3805 58.847 89.9449 58.7791 90.5243 58.7527C90.5393 58.7527 90.5487 58.7527 90.5581 58.747C90.5732 58.747 90.5732 58.7414 90.5732 58.7319C90.5732 58.7131 90.5882 58.7074 90.6277 58.7074C90.9908 58.6735 91.3539 58.6433 91.717 58.6093C92.0895 58.5848 92.4244 58.5207 92.7272 58.4263C92.9135 58.3679 93.0997 58.3037 93.301 58.2245C93.4929 58.1415 93.7092 58.0811 93.9199 58.017C94.1645 57.9528 94.4053 57.8887 94.6273 57.8095C94.8531 57.7302 95.0939 57.6529 95.3347 57.5642C95.6093 57.4812 95.884 57.3812 96.1455 57.2888C96.3656 57.2001 96.5819 57.1058 96.7983 57.0134C97.0297 56.9096 97.2554 56.8021 97.4755 56.6889C97.848 56.5173 98.2111 56.3097 98.5648 56.089C99.5562 55.4684 100.13 54.5195 100.288 53.248C100.166 53.0915 100.043 52.9519 99.9193 52.8142C99.797 52.6765 99.654 52.518 99.5073 52.3369C99.0802 51.8785 98.5986 51.4654 98.0644 51.0824C97.5301 50.7089 96.9544 50.5108 96.3505 50.5108C95.7372 50.5448 95.1183 50.5806 94.4956 50.6297C93.8729 50.6787 93.2333 50.7485 92.5955 50.8372C90.5149 51.1428 88.5414 51.6993 86.6564 52.5067C84.8015 53.3084 83.4018 54.5686 82.4593 56.3022C82.4443 56.3267 82.4349 56.3456 82.4198 56.3663C82.4781 56.6078 82.527 56.8681 82.5816 57.1436C82.6249 57.4152 82.6644 57.685 82.6888 57.9566C82.7227 58.0792 82.7471 58.2018 82.7584 58.3264C82.7772 58.4452 82.798 58.5716 82.8281 58.6904C82.9503 59.5375 83.1723 60.36 83.4902 61.1409C83.6464 61.5352 83.8834 61.8993 84.192 62.2294C84.5005 62.5595 84.8899 62.8652 85.3452 63.1349C86.1409 63.3556 86.9743 63.5047 87.8679 63.5933C88.7521 63.682 89.6551 63.731 90.5675 63.731H91.3031C92.6144 63.6669 93.9199 63.5103 95.2161 63.2538C96.5161 63.0029 97.7201 62.618 98.815 62.137C99.4339 61.954 99.9682 61.6352 100.44 61.1824C100.916 60.724 101.157 60.1939 101.157 59.5922C101.157 59.4695 101.152 59.3601 101.133 59.2469L101.142 59.2526L101.144 59.2507ZM87.3261 57.1247H86.6432C86.7411 56.8191 86.8539 56.5342 87.0063 56.2777C87.503 55.3628 88.3025 54.6629 89.3918 54.1762C90.8046 53.5518 92.2927 53.2405 93.8786 53.2405C94.3752 53.2405 94.8455 53.2745 95.3027 53.3292C95.7598 53.3933 96.2 53.4725 96.6327 53.5612C95.6262 54.4082 94.4486 55.1515 93.1091 55.7966C92.731 55.9683 92.3529 56.1305 91.971 56.2739H91.986C91.9032 56.3079 91.8186 56.338 91.7358 56.3626C91.6568 56.3871 91.5891 56.4173 91.5101 56.4418C91.3671 56.4852 91.2203 56.5399 91.0736 56.5795C90.9062 56.638 90.7293 56.6833 90.5581 56.7229C90.3964 56.7663 90.244 56.8059 90.0822 56.8304C90.0634 56.8455 90.0427 56.8493 90.0239 56.8493C89.8677 56.8889 89.7153 56.9191 89.5573 56.9379C89.514 56.953 89.4745 56.9568 89.4294 56.9568C89.2826 56.9908 89.1397 57.0115 88.9929 57.0266C88.7183 57.0606 88.4436 57.0813 88.1689 57.0964C88.0316 57.1021 87.898 57.1115 87.7569 57.1021C87.693 57.1077 87.6196 57.1172 87.55 57.1077C87.486 57.1134 87.4127 57.1134 87.3431 57.1134L87.328 57.1285L87.3261 57.1247Z" fill="white"/>
<path d="M46.247 59.7035C46.3166 59.7035 46.39 59.7035 46.4539 59.7091H46.247C46.1247 59.645 45.9817 59.5865 45.835 59.5224C45.6788 59.4639 45.5114 59.4186 45.3346 59.3847C45.2461 59.3601 45.1427 59.3149 45.0392 59.2658C45.1427 59.3092 45.2461 59.345 45.3346 59.3733C45.517 59.4073 45.6826 59.4526 45.835 59.511C45.9817 59.5752 46.1247 59.6337 46.247 59.6978V59.7035Z" fill="white"/>
<path d="M56.4961 58.7338C56.1875 58.9055 55.8621 59.0489 55.5235 59.1621C55.8677 59.0432 56.1857 58.9017 56.4961 58.7338Z" fill="white"/>
<path d="M115.139 58.7395C115.609 58.632 116.072 58.5565 116.538 58.532C116.072 58.5659 115.611 58.6357 115.139 58.7395Z" fill="white"/>
<path d="M118.839 57.5586C118.672 57.6472 118.495 57.7265 118.324 57.8038C118.167 57.868 118.019 57.9264 117.866 57.9906C117.71 58.0491 117.558 58.1094 117.409 58.1622C117.253 58.2264 117.105 58.2905 116.952 58.349C116.873 58.383 116.805 58.4131 116.732 58.4377C116.802 58.4037 116.875 58.3735 116.952 58.3396C117.108 58.2811 117.257 58.2169 117.409 58.1528C117.556 58.0981 117.714 58.034 117.866 57.9811C118.023 57.917 118.171 57.8585 118.324 57.7944C118.495 57.7152 118.672 57.6378 118.839 57.5529V57.5586Z" fill="white"/>
<path d="M18.7242 59.1866C18.7054 59.0828 18.6696 58.9659 18.6056 58.8527C18.1485 58.9413 17.6932 59.0394 17.2304 59.1489C16.7733 59.2526 16.318 59.3507 15.8552 59.4394C15.3642 59.562 14.8826 59.6808 14.4123 59.7846C13.9364 59.8921 13.4698 59.977 13.0127 60.0355C12.4332 60.1581 11.8595 60.2468 11.2894 60.3109C10.7307 60.3694 10.1644 60.3996 9.62076 60.3996C8.86073 60.3996 8.09506 60.3203 7.33315 60.1675C6.56748 60.0204 5.83567 59.7487 5.13396 59.345C5.43872 59.1338 5.86012 58.981 6.40945 58.8923C6.96442 58.7942 7.53444 58.7357 8.10258 58.7055C8.13644 58.7055 8.15713 58.6999 8.15713 58.6867C8.15713 58.6678 8.17219 58.6621 8.20041 58.6621C8.56913 58.6282 8.93598 58.6037 9.2953 58.5735C9.66403 58.5395 9.99701 58.4848 10.3055 58.3905C10.488 58.332 10.6743 58.2622 10.8756 58.183C11.0768 58.1038 11.2838 58.0396 11.4945 57.9755C11.7391 57.917 11.9799 57.8472 12.2112 57.7736C12.437 57.6944 12.6684 57.6114 12.9186 57.5227C14.0775 57.1587 15.1573 56.6719 16.1487 56.0513C17.1401 55.4269 17.7139 54.4818 17.8626 53.2066C17.744 53.0594 17.618 52.9104 17.4995 52.7727C17.3715 52.635 17.2342 52.4822 17.0875 52.2954C16.6548 51.8427 16.1751 51.4295 15.6445 51.0503C15.1103 50.6712 14.5346 50.4788 13.9213 50.4788C13.3174 50.5127 12.6891 50.5485 12.0664 50.5976C11.4437 50.641 10.8097 50.7051 10.1663 50.8051C8.08941 51.1107 6.11221 51.6672 4.23659 52.4689C2.35157 53.2763 0.942511 54.5667 0 56.3286C0.058319 56.5739 0.107229 56.8266 0.156142 57.0964C0.199411 57.368 0.238918 57.6472 0.274662 57.9189C0.308525 58.0415 0.329218 58.1641 0.344268 58.283C0.359318 58.4056 0.383779 58.5244 0.408236 58.6471C0.530517 59.4941 0.756266 60.3166 1.07044 61.1032C1.21341 61.4522 1.41471 61.7767 1.67432 62.0728C1.75709 62.1709 1.84175 62.2596 1.93958 62.3483C2.00918 62.4181 2.08256 62.486 2.15969 62.5501C2.33088 62.7067 2.52841 62.8463 2.73347 62.9783C2.79743 63.0217 2.86139 63.0613 2.92535 63.1009C3.72113 63.3122 4.56393 63.465 5.44812 63.5594C6.33608 63.648 7.23532 63.6971 8.15713 63.6971H8.8833C10.1983 63.6329 11.5001 63.4763 12.8057 63.2198C13.4585 63.0915 14.0812 62.9293 14.6813 62.7482C15.2796 62.5614 15.8496 62.3501 16.4046 62.103C16.8015 61.9842 17.1702 61.8069 17.5145 61.5673C17.633 61.488 17.7403 61.405 17.8475 61.3069C17.9115 61.2522 17.9698 61.2032 18.03 61.1447C18.0939 61.0862 18.1523 61.0259 18.1974 60.973C18.2313 60.9334 18.2614 60.8938 18.2952 60.8542C18.3347 60.7995 18.3743 60.7504 18.4025 60.6976C18.4081 60.692 18.4175 60.6788 18.4213 60.6637C18.632 60.3184 18.7449 59.9449 18.7449 59.5356C18.7449 59.413 18.7298 59.3035 18.7204 59.1903L18.7242 59.1866ZM6.97383 54.1215C8.37725 53.4971 9.87473 53.1858 11.4606 53.1858C11.9516 53.1858 12.4276 53.2103 12.8791 53.2745C13.3456 53.3329 13.7821 53.4122 14.2148 53.5008C13.2046 54.3516 12.0306 55.0949 10.6912 55.7363C9.34045 56.3758 7.97089 56.7851 6.56371 56.9719C6.28905 57.0058 6.00874 57.0266 5.73972 57.036C5.46506 57.0549 5.19039 57.0549 4.91573 57.0549H4.22343C4.65047 55.7212 5.56852 54.7421 6.97759 54.1215H6.97383Z" fill="white"/>
<path d="M12.8132 63.2085C13.466 63.0802 14.0887 62.918 14.6889 62.7369C14.0906 62.9293 13.4623 63.0859 12.8132 63.2141C11.5133 63.4745 10.2077 63.6273 8.89083 63.6914H8.16466C7.24096 63.6914 6.34925 63.648 5.45565 63.5537C4.57146 63.465 3.72865 63.3085 2.93288 63.0953C2.86892 63.0557 2.80496 63.0123 2.74099 62.967C2.80496 63.0104 2.86892 63.05 2.93288 63.0896C3.72865 63.3009 4.57146 63.4537 5.45565 63.548C6.3436 63.6367 7.24284 63.6858 8.16466 63.6858H8.89083C10.2058 63.6216 11.5077 63.465 12.8132 63.2085Z" fill="white"/>
<path d="M14.6889 62.7369C15.2871 62.5501 15.8571 62.3388 16.4121 62.0917C15.8571 62.3369 15.2871 62.5595 14.6889 62.7369Z" fill="white"/>
<path d="M17.855 61.2937C17.919 61.239 17.9773 61.19 18.0375 61.1315C17.9792 61.1956 17.919 61.2504 17.855 61.2937Z" fill="white"/>
<path d="M38.0202 58.4395C38.0202 58.5584 38.0146 58.6904 38.0014 58.8282C37.9826 58.9659 37.977 59.0941 37.977 59.2168C37.8547 59.8223 37.6289 60.3939 37.2847 60.9297C37.1962 61.0579 37.1022 61.1806 37.01 61.2937C36.8181 61.505 36.583 61.6918 36.3271 61.8502C36.2443 61.905 36.1559 61.9483 36.0562 61.9936C35.9772 62.0276 35.9001 62.0577 35.8248 62.0917C35.5351 62.2747 35.2266 62.4407 34.8973 62.5935C34.3424 62.8444 33.7291 63.0613 33.0518 63.2292C31.9663 63.5009 30.8432 63.6575 29.6844 63.6876H29.3156C28.2113 63.6876 27.1372 63.5688 26.0818 63.3424C25.032 63.1104 24.1027 62.7708 23.3088 62.3143C22.8234 61.7088 22.4698 61.0391 22.2591 60.2958C22.2346 60.2128 22.2158 60.1279 22.2007 60.0449C22.1819 59.9619 22.1669 59.877 22.1462 59.7997C22.0088 59.2092 21.9355 58.6225 21.9355 58.0321C21.9693 57.2454 22.0578 56.4814 22.2101 55.7382C22.3663 54.9949 22.5431 54.3158 22.7595 53.7102C24.0989 52.7066 25.6547 51.9181 27.4137 51.3427C29.1652 50.7674 30.9768 50.4769 32.843 50.4769C33.4563 50.4769 34.0545 50.5108 34.6547 50.5655C35.2491 50.6297 35.8323 50.7334 36.4174 50.89V51.1616C36.4174 51.1616 36.4607 51.205 36.5604 51.305C36.6488 51.3937 36.7523 51.4672 36.884 51.5257H36.9272C37.0457 51.5899 37.1473 51.6483 37.2226 51.7125C37.3016 51.771 37.3411 51.8804 37.3411 52.0275V52.3029C37.3411 52.6915 37.2188 53.0273 36.9686 53.2971C36.7278 53.5687 36.3948 53.7065 35.9621 53.7065C35.9038 53.7404 35.8436 53.7499 35.8003 53.7499H35.6386C35.5501 53.7499 35.4768 53.731 35.4128 53.6857C35.3488 53.6423 35.3056 53.5669 35.2755 53.4782C35.2416 53.4197 35.2115 53.3556 35.1777 53.2952C35.1532 53.2367 35.0986 53.1726 35.0403 53.1122C34.8842 53.0783 34.7356 53.0575 34.5832 53.0424C34.427 53.0273 34.2784 53.0236 34.126 53.0236C33.9699 52.9896 33.8213 52.9802 33.6689 52.9802H33.2117C31.3756 52.9802 29.6524 53.3895 28.0289 54.2007C26.4091 55.0232 24.9812 56.0758 23.7283 57.3756C23.9353 57.868 24.3077 58.2622 24.8232 58.5659C25.3443 58.8715 25.9087 59.1073 26.5163 59.2941C26.5747 59.313 26.6386 59.3337 26.7026 59.3582C26.8305 59.4016 26.9528 59.4413 27.0901 59.4809C27.2914 59.5393 27.4777 59.5884 27.6639 59.6186C29.1614 59.6525 30.5836 59.5205 31.9438 59.2394C32.1262 59.1998 32.3069 59.1564 32.478 59.1111C33.0575 58.9885 33.6313 58.8508 34.2013 58.7131C34.7901 58.5659 35.3752 58.4169 35.9527 58.2547C36.1634 58.1905 36.3704 58.1321 36.5717 58.0679C36.773 58.0094 36.9799 57.9491 37.1906 57.8849C37.3129 57.851 37.4408 57.8151 37.5838 57.7774C37.7211 57.7227 37.849 57.6887 37.9713 57.6586C38.0052 57.7774 38.0146 57.9 38.0146 58.0226L38.0202 58.017V58.4395Z" fill="white"/>
<path d="M35.821 62.0917C35.5313 62.2747 35.2228 62.4464 34.8936 62.5935C35.2228 62.4369 35.5313 62.269 35.821 62.0917Z" fill="white"/>
<path d="M37.0081 61.2994C36.8162 61.5201 36.5811 61.6974 36.3252 61.8502C36.5848 61.6937 36.8162 61.505 37.0081 61.2994Z" fill="white"/>
<path d="M40.7688 61.2786C40.7349 61.2598 40.7255 61.2353 40.7048 61.2088C40.6653 61.1504 40.6258 61.09 40.5863 61.0259C40.6258 61.0843 40.6653 61.1334 40.7048 61.1938C40.7236 61.2183 40.7443 61.2485 40.7688 61.2768V61.2786Z" fill="white"/>
<path d="M60.1777 59.8525C58.8627 61.1956 57.3012 62.1653 55.5046 62.7803C53.6986 63.3858 51.8381 63.6914 49.9136 63.6914C48.6324 63.6914 47.3607 63.5688 46.1096 63.3217C44.8586 63.0802 43.6452 62.7312 42.4863 62.2728C42.2756 62.2143 42.0743 62.1445 41.8919 62.0653C42.0743 62.1351 42.27 62.2087 42.4863 62.2671C43.6452 62.7199 44.8567 63.0689 46.1096 63.316C47.3607 63.5612 48.6324 63.6858 49.9136 63.6858C51.8324 63.6858 53.6986 63.3801 55.5046 62.7746C57.3012 62.1596 58.8627 61.19 60.1777 59.8506V59.8525Z" fill="white"/>
<path d="M104.438 61.688C104.526 61.7314 104.621 61.7861 104.688 61.8446C104.619 61.7899 104.526 61.7408 104.438 61.6974V61.688Z" fill="white"/>
<path d="M107.049 63.6858C107.57 63.8423 108.095 63.9612 108.611 64.0555C108.095 63.9668 107.574 63.848 107.049 63.6914C106.534 63.5443 106.018 63.3424 105.493 63.0953C106.015 63.3368 106.53 63.5329 107.049 63.6858Z" fill="white"/>
<path d="M108.601 58.6904L108.616 58.6848L108.601 58.6999C108.434 58.8376 108.268 58.9753 108.105 59.1281C108.266 58.981 108.434 58.8376 108.601 58.6942V58.6886V58.6904Z" fill="white"/>
<path d="M120.199 60.492C120.263 60.5467 120.322 60.5901 120.367 60.6391C120.323 60.5957 120.263 60.541 120.199 60.4958C118.8 61.505 117.229 62.3558 115.483 63.0745C113.741 63.7933 111.969 64.1479 110.172 64.1479C109.928 64.1479 109.662 64.1423 109.391 64.1234C109.117 64.1083 108.857 64.0895 108.611 64.0536C108.855 64.0876 109.111 64.097 109.391 64.1177C109.662 64.1366 109.926 64.1423 110.172 64.1423C111.969 64.1423 113.747 63.7876 115.483 63.0689C117.231 62.3501 118.801 61.4994 120.199 60.4901V60.492Z" fill="white"/>
<path d="M124.052 63.5424C124.219 63.4443 124.357 63.3349 124.46 63.2123C124.357 63.3405 124.219 63.4537 124.052 63.5424Z" fill="white"/>
<path d="M124.583 57.519C124.598 57.6755 124.622 57.8283 124.652 57.9774C124.618 57.834 124.594 57.6812 124.573 57.519H124.583Z" fill="white"/>
<path d="M65.6804 62.3219C65.8817 62.4407 66.0886 62.5426 66.2993 62.6463C66.0886 62.5482 65.8817 62.4388 65.6804 62.3313V62.3219Z" fill="white"/>
<path d="M68.4477 63.3405C69.2435 63.5122 70.0487 63.6254 70.8576 63.6707C70.0468 63.6273 69.2378 63.5235 68.4477 63.3556C67.9172 63.2368 67.4262 63.0953 66.9653 62.9217C67.4318 63.0896 67.9172 63.2311 68.4477 63.3405Z" fill="white"/>
<path d="M78.6197 61.3088C78.3111 61.6578 77.9123 61.9144 77.4326 62.0955C76.6669 62.5878 75.7432 62.967 74.654 63.2368C74.3831 63.3009 74.1141 63.365 73.8337 63.4198C74.1084 63.3613 74.3831 63.3009 74.654 63.233C75.7432 62.9614 76.6669 62.5784 77.4326 62.0917C77.9086 61.9087 78.3111 61.654 78.6197 61.3088Z" fill="white"/>
<path d="M87.0176 56.2777C86.8709 56.5437 86.7429 56.8134 86.6451 57.119C86.7429 56.8229 86.8558 56.538 87.0082 56.2777H87.0233H87.0176Z" fill="white"/>
<path d="M88.8424 58.9564C88.7051 58.9753 88.5772 59.0111 88.4549 59.0357C88.5772 59.0017 88.7051 58.9772 88.8424 58.9527C89.3918 58.864 89.9561 58.7961 90.5356 58.7697C90.5506 58.7697 90.56 58.7697 90.5694 58.764C90.5694 58.7791 90.5544 58.7791 90.5356 58.7791C89.9561 58.8036 89.3861 58.8678 88.8424 58.9621V58.9564Z" fill="white"/>
<path d="M91.7245 58.6301C91.3614 58.664 90.9984 58.6942 90.6353 58.7187C90.9984 58.6848 91.3614 58.6546 91.7245 58.6206C92.097 58.5961 92.4319 58.532 92.7348 58.4377C92.921 58.3792 93.1072 58.315 93.3085 58.2358C93.5004 58.1528 93.7168 58.0924 93.9275 58.0283C94.172 57.9642 94.4128 57.9 94.6348 57.8208C94.8606 57.7416 95.1014 57.6642 95.3422 57.5756C95.0976 57.6736 94.8568 57.7585 94.6348 57.8265C94.4091 57.9057 94.1683 57.9698 93.9275 58.034C93.7168 58.0981 93.5004 58.1566 93.3085 58.2415C93.1072 58.3207 92.921 58.3848 92.7348 58.4433C92.43 58.532 92.097 58.5999 91.7245 58.6263V58.632V58.6301Z" fill="white"/>
<path d="M135.195 63.9517C135.436 63.7838 135.661 63.5971 135.866 63.4009C135.665 63.6027 135.439 63.7801 135.195 63.9574C133.545 63.8687 132.501 63.2783 132.053 62.1804C131.995 62.037 131.946 61.8955 131.891 61.7521C131.946 61.8955 131.999 62.0276 132.053 62.1653C132.499 63.2632 133.541 63.8593 135.195 63.948V63.9536V63.9517Z" fill="white"/>
<path d="M137.763 60.343C137.763 60.343 137.787 60.343 137.797 60.3279C137.797 60.343 137.781 60.3467 137.763 60.3467V60.3411V60.343Z" fill="white"/>
<path d="M137.855 60.2562C137.924 60.0732 138.002 59.9015 138.086 59.7336C138.007 59.9053 137.93 60.0883 137.855 60.2694C137.83 60.2694 137.812 60.2845 137.8 60.3034C137.8 60.2788 137.819 60.26 137.855 60.26V60.2543V60.2562Z" fill="white"/>
<path d="M138.543 58.8678C138.504 58.9263 138.474 58.9866 138.436 59.0357C138.455 58.9772 138.491 58.9168 138.525 58.8678H138.543Z" fill="white"/>
<path d="M161 59.9355C161 60.2411 160.936 60.541 160.814 60.8467C160.695 61.1523 160.524 61.4069 160.313 61.6239C159.828 62.0219 159.322 62.3671 158.797 62.6765C158.537 62.8387 158.276 62.9915 157.997 63.1349C157.909 63.1783 157.811 63.2236 157.713 63.2726C157.585 63.3368 157.448 63.3952 157.316 63.4556C156.231 63.914 155.112 64.1404 153.943 64.1404C153.61 64.1404 153.266 64.1159 152.918 64.0706C152.564 64.0272 152.22 63.9631 151.887 63.8687C150.45 63.4103 149.154 62.5897 148.014 61.3975C147.754 61.1315 147.498 60.8617 147.254 60.5844C147.071 60.3769 146.891 60.1713 146.714 59.9638C146.052 59.2054 145.423 58.4226 144.829 57.6114C144.432 57.0945 144.054 56.5833 143.7 56.0853C143.352 55.5835 143.008 55.1005 142.675 54.644L141.826 54.6289C141.418 54.8157 141.051 55.0477 140.79 55.3722C140.396 55.8589 140.03 56.3758 139.695 56.9228C139.661 56.9813 139.631 57.0455 139.606 57.1058C139.572 57.17 139.542 57.2284 139.508 57.2888C139.42 57.4756 139.317 57.6435 139.213 57.7906C139.11 57.9472 139.006 58.0962 138.918 58.249C138.775 58.4509 138.643 58.6584 138.53 58.8697C138.491 58.9244 138.461 58.9772 138.442 59.0375C138.408 59.096 138.372 59.1564 138.344 59.2092C138.261 59.3771 138.177 59.5544 138.099 59.7261C138.017 59.894 137.938 60.0713 137.868 60.2486C137.834 60.2486 137.813 60.2675 137.813 60.292C137.813 60.292 137.813 60.3166 137.798 60.326C137.793 60.3411 137.783 60.3411 137.765 60.3411C137.46 61.0202 137.121 61.6748 136.734 62.3143C136.547 62.6293 136.325 62.9293 136.062 63.2009C136.004 63.2651 135.94 63.3386 135.87 63.4028C135.663 63.5952 135.437 63.782 135.199 63.9536C133.549 63.865 132.505 63.2688 132.057 62.1709C132.002 62.0332 131.95 61.8993 131.895 61.7578C131.84 61.6144 131.797 61.4824 131.752 61.339C131.468 60.4731 131.255 59.5375 131.118 58.5282C131.084 58.4395 131.075 58.3603 131.075 58.3018C131.075 58.2377 131.056 58.1736 131.02 58.1151C131.02 58.1094 131.015 58.0962 131.015 58.0755C130.868 56.8342 130.578 55.6834 130.151 54.6157C129.724 53.5386 129.022 53.2481 127.619 52.8783L127.579 52.2822C127.82 52.2482 127.845 51.7804 128.089 51.7408C128.334 51.6974 128.59 51.6578 128.87 51.6219C129.267 51.5578 129.67 51.4993 130.087 51.439C130.499 51.3748 130.898 51.3409 131.299 51.3409C131.603 51.3409 131.897 51.3597 132.187 51.3956C132.476 51.4201 132.76 51.4993 133.035 51.6219C133.795 52.2954 134.356 53.0443 134.704 53.8857C135.057 54.7176 135.357 55.559 135.601 56.4154C135.635 56.4739 135.659 56.538 135.671 56.6022C135.686 56.6606 135.69 56.721 135.69 56.7851C135.787 57.0568 135.861 57.3171 135.94 57.5623C136.019 57.8076 136.102 58.049 136.199 58.2905C136.593 58.0151 136.965 57.685 137.324 57.2813C137.672 56.887 138.032 56.4588 138.399 56.006C138.545 55.8193 138.694 55.6325 138.831 55.4307C138.969 55.2383 139.115 55.0326 139.268 54.8157C140.043 53.831 140.872 52.9198 141.736 52.0747H141.751C141.751 52.0747 141.77 52.0407 141.79 52.0313V52.0558L143.66 51.4805C143.66 51.4805 143.627 51.4993 143.617 51.505C144.093 51.3182 144.599 51.2145 145.143 51.2145C145.384 51.2145 145.628 51.2333 145.869 51.2786C146.114 51.3333 146.36 51.3975 146.605 51.4861C147.032 51.7917 147.464 52.1501 147.886 52.584C148.318 53.0122 148.725 53.4499 149.124 53.9027C149.306 54.0894 149.477 54.2818 149.654 54.478C149.822 54.6799 149.987 54.8874 150.175 55.0987C151.185 56.255 152.267 57.3228 153.405 58.2924C154.555 59.2771 155.874 59.7601 157.371 59.7601C157.892 59.7601 158.426 59.6808 158.976 59.528C159.525 59.3809 160.105 59.1489 160.718 58.8433C160.806 59.0262 160.88 59.213 160.925 59.3847C160.968 59.5771 160.994 59.7582 160.994 59.9412L161 59.9355Z" fill="white"/>
<path d="M157.715 63.2726C157.587 63.3424 157.45 63.4009 157.318 63.4594C156.233 63.9178 155.114 64.1442 153.945 64.1442C153.612 64.1442 153.268 64.1196 152.92 64.0744C152.566 64.031 152.222 63.9668 151.889 63.8725C150.452 63.4141 149.156 62.5935 148.016 61.4013C149.154 62.5822 150.45 63.4047 151.889 63.8631C152.222 63.9517 152.566 64.0197 152.92 64.0649C153.268 64.1083 153.612 64.1347 153.945 64.1347C155.114 64.1347 156.233 63.9084 157.318 63.4499C157.456 63.3915 157.589 63.3311 157.715 63.267V63.2726Z" fill="white"/>
<path d="M116.52 20.9276C116.141 20.1749 113.511 20.7408 113.511 20.7408L114.448 19.9919C114.448 19.9919 115.013 19.8052 116.141 19.0619C117.27 18.313 116.141 19.0619 115.949 18.1262C115.763 17.1868 112.945 16.817 112.189 15.8776C111.442 14.9419 107.875 11.7576 105.435 9.69948C102.991 7.6376 99.6089 3.14408 89.6533 1.08031C79.6939 -0.987229 69.9264 4.24954 68.0451 4.8117C66.1695 5.3682 65.9795 5.74738 64.2845 6.12089C63.1595 6.3699 62.2189 6.49441 61.4664 6.49441C60.3376 6.49441 59.2126 7.24332 57.7057 7.99036C56.1988 8.73927 56.3851 9.67306 55.6401 11.3577C54.8838 13.046 56.5732 19.9712 56.5732 19.9712L55.6307 18.8431C54.6976 17.7206 50.5645 13.4139 49.2438 13.4139C47.9232 13.4139 48.4932 14.5363 46.8038 16.0323C45.1107 17.5282 44.5463 21.8312 44.3544 26.3285C44.1682 30.8182 49.4244 35.3155 50.1769 36.0644C50.9275 36.8133 51.3057 36.0644 52.0563 35.6909C52.8126 35.3117 57.5101 27.8301 57.5101 27.8301C57.5101 27.8301 57.3238 28.7658 56.9457 29.8882C56.5676 31.0163 56.3813 31.0163 57.1319 34.3817C57.8826 37.7528 58.6332 36.819 60.1363 37.7528C61.6432 38.6922 63.3363 37.9396 69.9151 38.3187C76.492 38.6979 79.4926 39.0714 87.7626 38.1414C96.0345 37.2114 100.354 34.7798 103.74 32.5349C107.117 30.29 112.012 24.6797 112.012 24.6797L113.513 24.1195C115.015 23.5535 115.393 23.1838 116.145 22.4368C116.649 21.9387 116.775 21.4388 116.523 20.9408L116.518 20.9257L116.52 20.9276ZM101.863 24.1025C101.441 25.7078 98.0625 29.4977 96.7042 30.8465C95.3497 32.1953 86.8972 34.725 83.0049 35.8173C79.1126 36.9096 66.5175 36.2399 65.2458 35.7286C63.9797 35.2268 61.4419 33.5385 61.186 32.5292C60.9302 31.52 61.8633 29.8316 61.6921 29.1619C61.5209 28.4885 59.3255 26.0417 57.3784 26.3813C55.435 26.7152 51.2925 32.45 50.5268 32.45C49.7612 32.45 49.3435 31.1012 49.0933 30.0882C48.8375 29.0789 47.3155 27.7301 46.9769 25.623C46.6383 23.5158 47.7369 19.6373 48.1602 18.8846C48.5816 18.1262 50.3594 17.6188 51.2079 18.0432C52.0525 18.4658 53.5745 19.8108 54.3345 20.4899C55.0945 21.1634 56.7049 21.5879 57.3784 21.5879C57.9729 21.5879 58.5617 21.4162 59.4892 20.7465C60.4223 20.073 59.8278 16.0266 59.9106 13.8365C59.9933 11.6463 64.3974 9.45612 66.0021 8.36387C67.6124 7.26596 72.3438 6.08505 74.3755 5.41536C76.4035 4.7419 85.1157 4.31745 89.341 5.24369C93.5682 6.17371 93.3161 11.0558 94.2454 12.8234C95.1729 14.5948 97.6279 16.1945 98.9824 17.1208C100.333 18.0508 102.28 22.516 101.853 24.11L101.863 24.1044V24.1025ZM100.792 14.9513C99.4226 14.9513 98.3127 13.844 98.3127 12.4801C98.3127 11.1162 99.4264 10.0089 100.792 10.0089C102.158 10.0089 103.272 11.1162 103.272 12.4801C103.272 13.844 102.167 14.9513 100.792 14.9513Z" fill="white"/>
<path d="M89.3748 22.3651C89.1886 21.967 87.8773 22.2217 87.8773 22.2028C87.8773 22.1934 88.3477 21.8086 88.3533 21.8048C88.3533 21.7897 88.6374 21.6822 89.2017 21.2879C89.7718 20.8936 89.2018 21.254 89.1039 20.7616C89.0061 20.2353 87.5726 19.9844 87.185 19.4581C87.106 19.3505 86.9649 19.1977 86.7881 19.011C86.0563 18.2432 84.6679 16.9774 83.6219 16.087C82.8017 15.3871 81.7952 14.2364 79.9403 13.2083C78.7476 12.5537 77.2163 11.9576 75.2033 11.5539C70.1277 10.5352 65.1555 13.1536 64.1434 13.4592C63.1858 13.744 63.0786 13.9364 62.2189 14.1288C61.5962 14.2666 61.4137 14.3118 61.1447 14.3213C61.0468 14.3213 60.9283 14.3213 60.7759 14.3269C60.1965 14.3269 59.6171 14.7118 58.8514 15.0947C58.0857 15.4739 58.1742 15.9455 57.781 16.7982C57.384 17.6603 58.1986 21.1502 58.1779 21.1691L57.6926 20.6126C57.2072 20.0617 55.1058 17.8904 54.4286 17.9451C53.962 17.9847 53.8548 18.2903 53.6535 18.7035C53.5068 19.0091 53.345 19.3826 52.9913 19.7674C52.1805 20.6427 51.8776 22.8593 51.8136 25.1966C51.8136 25.3098 51.8136 25.423 51.823 25.5362C52.0093 27.7603 54.4643 29.8976 54.8914 30.3202C55.2789 30.705 55.4651 30.3202 55.8583 30.158C56.2703 29.9901 58.6802 26.2889 58.7291 26.3134C58.7385 26.3228 58.6501 26.7907 58.4733 27.3623C58.3604 27.7358 58.287 27.8641 58.3604 28.3753C58.3999 28.6564 58.4921 29.045 58.6407 29.6449C59.0377 31.3427 59.4402 30.8861 60.221 31.3578C61.0261 31.8445 61.9348 31.4709 65.291 31.6634C68.6829 31.8501 70.2876 32.0218 74.5242 31.5162C78.7551 31.0144 81.0032 29.7392 82.766 28.5488C84.5287 27.3623 87.0308 24.4685 87.0703 24.3798H87.0759C87.1154 24.3647 87.2584 24.3006 87.8322 24.0798C88.5922 23.7799 88.7898 23.563 89.1773 23.1649C89.5611 22.7707 89.5611 22.7669 89.3729 22.3726L89.3748 22.3651ZM81.5601 24.7722C80.5988 25.7324 78.9583 26.8586 76.9209 28.0357C74.8835 29.2223 73.8093 29.8429 71.723 29.7826C69.6273 29.7279 64.768 28.8224 63.6336 28.0357C62.5048 27.2528 60.6386 25.5607 60.0705 25.3928C59.5061 25.2211 59.5644 25.1721 59.222 25.1721C58.7705 25.1721 57.4104 26.7473 56.5074 27.0868C55.5987 27.4264 54.5245 27.8207 54.1313 27.2585C53.7344 26.6926 53.2829 25.0627 53.567 23.9893C53.851 22.9216 54.1896 21.735 54.3082 21.3407C54.421 20.9465 55.3241 20.4937 56.1142 20.8936C56.9043 21.2822 57.5232 21.9067 58.5448 22.1293C59.5663 22.3556 60.0705 22.2424 60.2435 21.0615C60.4147 19.8806 59.8466 18.6997 60.5276 17.7923C61.2049 16.8925 62.565 15.9361 63.9195 15.8776C65.274 15.8191 71.2132 13.229 73.1377 13.8497C75.0622 14.4741 76.6425 15.3173 78.0026 16.6699C79.3628 18.0225 81.4528 19.0374 81.9043 20.4994C82.3559 21.967 82.527 23.8271 81.5657 24.7816L81.5601 24.7722ZM82.0266 19.0279C81.4434 19.0279 80.9712 18.5563 80.9712 17.9753C80.9712 17.3943 81.4416 16.9227 82.0266 16.9227C82.6117 16.9227 83.082 17.3905 83.082 17.9753C83.082 18.5601 82.6117 19.0279 82.0266 19.0279Z" fill="white"/>
<path d="M73.0436 23.014C72.9646 22.8272 72.4153 22.9159 72.4209 22.882C72.4209 22.8725 72.6222 22.699 72.6222 22.6895C72.6222 22.6744 72.7445 22.616 72.9797 22.433C73.2205 22.25 72.9797 22.3839 72.9364 22.1613C72.8875 21.8897 72.2742 21.7331 72.0917 21.4615C72.0522 21.403 71.9882 21.3238 71.9092 21.2351C71.5649 20.8408 70.9366 20.2409 70.4418 19.8071C70.0392 19.4524 69.5539 18.9204 68.6942 18.4582C68.1147 18.1432 67.3886 17.8867 66.4555 17.715C64.2412 17.2962 62.0815 18.3998 61.5905 18.5469C61.1729 18.6695 61.1202 18.7582 60.7458 18.8431C60.4712 18.9016 60.3922 18.9223 60.2755 18.9317C60.2323 18.9317 60.1814 18.9317 60.1137 18.9374C59.8579 18.9374 59.6077 19.1091 59.269 19.2713C58.9361 19.4392 58.9643 19.6505 58.7874 20.0089C58.6012 20.3824 58.9248 21.8746 58.8909 21.8935L58.6802 21.6671C58.4601 21.4407 57.542 20.5296 57.2467 20.5899C56.9871 20.6446 56.9024 20.8559 56.7895 21.1011C56.6955 21.303 56.6278 21.5445 56.4603 21.7859C56.1405 22.2481 56.0032 23.2423 56.0088 24.3062C56.0088 24.3609 56.0145 24.41 56.0239 24.4628C56.1311 25.4758 57.2166 26.4417 57.4517 26.6775C57.6192 26.8491 57.702 26.6775 57.8844 26.6341C58.0914 26.5756 59.1505 25.0532 59.2145 25.0929C59.2295 25.0985 59.1994 25.3042 59.1355 25.5513C59.096 25.7135 59.0715 25.772 59.1167 25.9889C59.1411 26.1172 59.19 26.2794 59.2596 26.5398C59.4553 27.2642 59.6434 27.0812 59.9952 27.283C60.379 27.5037 60.8098 27.3472 62.2772 27.4264C63.7935 27.5094 64.5497 27.5585 66.4159 27.3189C68.2765 27.0774 69.2924 26.4926 70.0919 25.9399C70.8915 25.3796 71.9958 24.0949 72.0409 23.9818C72.0409 23.9818 72.1237 23.9327 72.3701 23.829C72.7031 23.6856 72.7878 23.5724 72.959 23.3856C73.1208 23.2083 73.1207 23.1932 73.0474 23.0159L73.0417 23.0102L73.0436 23.014ZM69.7947 22.5462C69.4749 23.329 68.9349 24.6175 67.9341 25.1551C66.9276 25.6871 65.3869 26.5473 63.9534 26.3662C62.5199 26.1889 61.3365 26.1493 60.8324 25.7267C60.332 25.2985 59.9726 24.5496 59.6095 24.442C59.6095 24.442 58.1422 25.1608 57.8186 25.4456C57.495 25.7305 57.3859 25.623 57.0962 25.3381C56.8121 25.0533 56.5619 23.6196 56.7387 23.2309C56.9212 22.8367 57.2392 22.3405 57.6022 22.267C57.9597 22.1934 58.5692 22.3009 59.0358 22.4783C59.5023 22.6612 59.9331 22.3707 59.9689 21.9765C60.0027 21.5822 59.6848 21.0125 59.8993 20.5843C60.1156 20.156 60.7195 19.8316 61.2237 19.6882C61.7297 19.5448 63.8443 19.043 65.0614 19.3298C66.2786 19.6203 67.7855 20.0825 68.2182 20.722C68.6509 21.3671 70.1183 21.7614 69.7947 22.5481V22.5462ZM69.5934 21.0993C69.3281 21.0993 69.108 20.8823 69.108 20.6163C69.108 20.3503 69.3244 20.1334 69.5934 20.1334C69.8624 20.1334 70.0788 20.3503 70.0788 20.6163C70.0788 20.8823 69.8624 21.0993 69.5934 21.0993Z" fill="white"/>
<path d="M31.4283 80.4902V76.8192H30.8827V75.7307H32.0077V76.6419H32.3407C32.4686 76.3325 32.6699 76.091 32.9446 75.9288C33.2193 75.7665 33.5391 75.6835 33.8965 75.6835H34.2935V76.6135H33.8514C33.4055 76.6135 33.0669 76.7418 32.8355 77.0022C32.6041 77.2625 32.4912 77.6077 32.4912 78.0416V80.4921H31.4264L31.4283 80.4902Z" fill="white"/>
<path d="M37.9713 80.5732C37.4258 80.5732 36.9987 80.4412 36.6845 80.1695C36.3704 79.8979 36.2142 79.5451 36.2142 79.1055C36.2142 78.666 36.3704 78.2887 36.6902 78.0322C37.01 77.7756 37.4615 77.653 38.0503 77.653H39.5516V77.4568C39.5516 76.8211 39.1941 76.506 38.4774 76.506C37.8679 76.506 37.5048 76.7267 37.3881 77.1663H36.3139C36.4024 76.6739 36.6375 76.2947 37.0156 76.0288C37.3938 75.7628 37.8848 75.6307 38.4924 75.6307C39.1753 75.6307 39.6908 75.7873 40.0539 76.1023C40.4113 76.4174 40.5938 76.8758 40.5938 77.47V79.3998H41.1093V80.4883H39.9956V79.7356H39.6626C39.5008 80.0016 39.2788 80.2072 39.0004 80.3563C38.7201 80.5034 38.3814 80.577 37.9901 80.577L37.9751 80.5713L37.9713 80.5732ZM38.1275 79.7318C38.3984 79.7318 38.6373 79.6771 38.8536 79.5753C39.07 79.4715 39.2412 79.33 39.3635 79.1527C39.4857 78.9754 39.5497 78.7792 39.5497 78.5622V78.4094H38.1011C37.5217 78.4094 37.232 78.6264 37.232 79.0584C37.232 79.2697 37.311 79.4376 37.4671 79.5564C37.6233 79.6753 37.8453 79.7337 38.1256 79.7337L38.1275 79.7318Z" fill="white"/>
<path d="M44.2002 75.1553C44.0327 75.1553 43.886 75.0969 43.7637 74.978C43.6414 74.8592 43.5812 74.712 43.5812 74.5403C43.5812 74.3687 43.6395 74.2253 43.7581 74.1027C43.8766 73.9801 44.0233 73.9197 44.2002 73.9197C44.377 73.9197 44.5143 73.9782 44.6366 74.097C44.7589 74.2159 44.8191 74.363 44.8191 74.5403C44.8191 74.7177 44.7608 74.8554 44.6423 74.978C44.5237 75.1006 44.377 75.161 44.2058 75.161L44.2002 75.1553ZM43.664 80.4902V75.7307H44.7382V80.4902H43.664Z" fill="white"/>
<path d="M49.5016 80.5845C48.8243 80.5845 48.2938 80.4411 47.9006 80.162C47.5131 79.8809 47.2967 79.4828 47.2572 78.9754H48.307C48.3465 79.2357 48.4631 79.4281 48.6644 79.5564C48.8657 79.6847 49.1554 79.7488 49.5335 79.7488C50.1863 79.7488 50.5156 79.5526 50.5156 79.164C50.5156 79.0075 50.4666 78.8829 50.3632 78.7905C50.2653 78.7019 50.0979 78.6339 49.8628 78.5943L48.813 78.3981C47.9006 78.2265 47.4435 77.7869 47.4435 77.0984C47.4435 76.6551 47.6147 76.3004 47.9646 76.0401C48.3126 75.7797 48.7886 75.6458 49.3981 75.6458C50.0076 75.6458 50.4967 75.7779 50.8561 76.0495C51.2191 76.3212 51.4204 76.6947 51.4599 77.1776H50.4234C50.3651 76.9361 50.2522 76.755 50.0791 76.6362C49.9079 76.5173 49.6615 76.4645 49.3379 76.4645C49.0538 76.4645 48.8318 76.5136 48.6794 76.6079C48.5271 76.7022 48.4481 76.8399 48.4481 77.021C48.4481 77.1531 48.497 77.2625 48.5948 77.3417C48.6926 77.4247 48.845 77.4851 49.0557 77.5285L50.1167 77.736C50.5983 77.8246 50.9464 77.9812 51.1665 78.1982C51.3866 78.4189 51.4995 78.7151 51.4995 79.0848C51.4995 79.5621 51.3283 79.9318 50.9783 80.2016C50.6303 80.4676 50.1337 80.5996 49.4809 80.5996L49.4959 80.5902L49.5016 80.5845Z" fill="white"/>
<path d="M56.1669 80.5845C55.6664 80.5845 55.23 80.4808 54.8556 80.2789C54.4831 80.0771 54.1972 79.7865 53.9959 79.4074C53.7946 79.0282 53.6968 78.5905 53.6968 78.0887C53.6968 77.587 53.7946 77.1531 53.9921 76.7852C54.1878 76.4155 54.4737 76.1363 54.8368 75.9344C55.1999 75.7326 55.6326 75.6345 56.1273 75.6345C56.6221 75.6345 57.0115 75.7288 57.3539 75.9156C57.6982 76.1023 57.9635 76.3683 58.1497 76.7173C58.3359 77.0625 58.43 77.4757 58.43 77.9529V78.351H54.7296C54.7728 78.7849 54.9158 79.1188 55.166 79.3546C55.4106 79.5904 55.7454 79.7092 56.1631 79.7092C56.4679 79.7092 56.7181 79.6507 56.9137 79.5375C57.1094 79.4244 57.2429 79.247 57.3163 79.015H58.4056C58.287 79.513 58.0368 79.9016 57.6399 80.177C57.2467 80.4525 56.7557 80.5958 56.1631 80.5958L56.1687 80.5864L56.1669 80.5845ZM54.7578 77.5907H57.3991C57.3558 77.2417 57.2222 76.9758 57.0021 76.7833C56.782 76.5909 56.4867 76.5023 56.1236 76.5023C55.7605 76.5023 55.4614 76.5966 55.2206 76.7833C54.9798 76.9701 54.8274 77.2417 54.754 77.5907H54.7597H54.7578Z" fill="white"/>
<path d="M62.9319 80.5845C62.4503 80.5845 62.0439 80.4808 61.7053 80.2789C61.3667 80.0771 61.1108 79.7866 60.9396 79.4168C60.7628 79.0471 60.68 78.6094 60.68 78.1076C60.68 77.6058 60.7628 77.1682 60.9358 76.7928C61.107 76.4192 61.3535 76.1325 61.6827 75.9307C62.0063 75.7288 62.3938 75.6307 62.8416 75.6307C63.2103 75.6307 63.5282 75.7005 63.7897 75.842C64.055 75.9797 64.2563 76.1816 64.3992 76.4419H64.4293V73.8235H65.5035V79.3998H66.0435V80.4883H64.9298V79.7356H64.5968C64.435 80.011 64.213 80.2223 63.9346 80.3657C63.6543 80.5091 63.325 80.5826 62.9337 80.5826H62.9394L62.9319 80.5845ZM63.1125 79.6526C63.515 79.6526 63.8349 79.5394 64.07 79.3131C64.3052 79.0867 64.4275 78.7773 64.4275 78.3925V77.8209C64.4275 77.436 64.3089 77.1267 64.07 76.9003C63.8292 76.6739 63.515 76.5607 63.1125 76.5607C62.676 76.5607 62.3374 76.6984 62.106 76.9739C61.8708 77.2493 61.7523 77.6285 61.7523 78.1114C61.7523 78.5943 61.8708 78.9735 62.106 79.2489C62.3411 79.5243 62.676 79.662 63.1125 79.662V79.6526Z" fill="white"/>
<path d="M73.8582 80.4902C73.5685 80.4902 73.3427 80.4166 73.181 80.2695C73.0192 80.1223 72.9401 79.896 72.9401 79.596V76.5739H72.0861V75.7326H72.9496V74.3045H74.0106V75.7326H75.1883V76.5739H74.0144V79.6451H75.3049V80.4959H73.8563V80.4902H73.8582Z" fill="white"/>
<path d="M79.9008 80.5845C79.4004 80.5845 78.9639 80.4808 78.5896 80.2789C78.2171 80.0771 77.9274 79.7866 77.7261 79.4168C77.5191 79.0471 77.4176 78.6094 77.4176 78.1076C77.4176 77.6058 77.521 77.1682 77.7223 76.7984C77.9236 76.4287 78.2133 76.1438 78.5915 75.9363C78.9639 75.7345 79.406 75.6307 79.9121 75.6307C80.4182 75.6307 80.864 75.7288 81.2327 75.9307C81.6015 76.1325 81.8855 76.4174 82.0868 76.7871C82.2881 77.1569 82.386 77.5945 82.386 78.1057C82.386 78.617 82.2881 79.0452 82.0868 79.4206C81.8855 79.7941 81.6015 80.0808 81.2271 80.2827C80.8546 80.4845 80.4125 80.5826 79.9027 80.5826L79.9008 80.5845ZM79.9008 79.6488C80.3467 79.6488 80.6966 79.5111 80.9411 79.2357C81.1857 78.9603 81.3099 78.5868 81.3099 78.1076C81.3099 77.6285 81.1876 77.2417 80.9411 76.9701C80.6966 76.6984 80.3467 76.5664 79.9008 76.5664C79.4549 76.5664 79.1107 76.7041 78.8642 76.9758C78.614 77.2474 78.4917 77.6247 78.4917 78.1076C78.4917 78.5906 78.614 78.9584 78.8642 79.2357C79.1088 79.5111 79.4587 79.6488 79.9008 79.6488Z" fill="white"/>
<path d="M91.7245 80.5845C91.3313 80.5845 90.9983 80.5109 90.718 80.3676C90.4377 80.2204 90.2176 80.0129 90.0596 79.7375H89.7266V80.4902H88.6016V79.4017H89.1472V73.8254H90.2214V76.4438H90.2515C90.3945 76.1834 90.5995 75.9854 90.8648 75.8439C91.13 75.7062 91.4442 75.6326 91.8016 75.6326C92.2532 75.6326 92.6463 75.7307 92.9699 75.9325C93.2935 76.1344 93.5437 76.4192 93.7111 76.7947C93.8823 77.1682 93.967 77.6077 93.967 78.1095C93.967 78.6113 93.8786 79.0489 93.7017 79.4187C93.5249 79.7884 93.269 80.0789 92.9361 80.2808C92.6031 80.4826 92.1948 80.5864 91.7132 80.5864H91.7226L91.7245 80.5845ZM91.5326 79.6526C91.9747 79.6526 92.3134 79.5149 92.5485 79.2395C92.7837 78.9641 92.9022 78.5849 92.9022 78.102C92.9022 77.619 92.7837 77.2399 92.5485 76.9644C92.3134 76.689 91.9747 76.5513 91.5326 76.5513C91.1357 76.5513 90.8215 76.6645 90.5845 76.8909C90.3493 77.1172 90.227 77.4266 90.227 77.8114V78.383C90.227 78.7679 90.3456 79.0772 90.5845 79.3036C90.8196 79.53 91.1394 79.6432 91.5326 79.6432V79.6526Z" fill="white"/>
<path d="M98.6908 80.5845C98.1904 80.5845 97.754 80.4808 97.3796 80.2789C97.0052 80.0771 96.7211 79.7865 96.5198 79.4074C96.3186 79.0282 96.2207 78.5905 96.2207 78.0887C96.2207 77.587 96.3185 77.1531 96.5161 76.7852C96.7117 76.4155 96.9977 76.1363 97.3608 75.9344C97.7239 75.7326 98.1565 75.6345 98.6513 75.6345C99.1461 75.6345 99.5355 75.7288 99.8779 75.9156C100.222 76.1023 100.487 76.3683 100.674 76.7173C100.86 77.0625 100.954 77.4757 100.954 77.9529V78.351H97.2535C97.2968 78.7849 97.4398 79.1188 97.69 79.3546C97.9346 79.5904 98.2694 79.7092 98.6871 79.7092C98.9918 79.7092 99.242 79.6507 99.4377 79.5375C99.6333 79.4244 99.7669 79.247 99.8403 79.015H100.93C100.811 79.513 100.561 79.9016 100.164 80.177C99.7707 80.4525 99.2797 80.5958 98.6871 80.5958L98.6927 80.5864L98.6908 80.5845ZM97.2818 77.5907H99.923C99.8798 77.2417 99.7462 76.9758 99.5261 76.7833C99.306 76.5909 99.0106 76.5023 98.6476 76.5023C98.2845 76.5023 97.9853 76.5966 97.7445 76.7833C97.5037 76.9701 97.3514 77.2417 97.278 77.5907H97.2836H97.2818Z" fill="white"/>
<path d="M108.526 80.4902L107.004 75.7307H108.114L109.151 79.1659H109.19L110.402 75.7307H111.463L112.68 79.1659H112.719L113.756 75.7307H114.845L113.333 80.4902H112.159L110.932 77.0946H110.902L109.691 80.4902H108.517H108.526Z" fill="white"/>
<path d="M117.75 75.1553C117.582 75.1553 117.436 75.0969 117.313 74.978C117.191 74.8592 117.131 74.712 117.131 74.5403C117.131 74.3687 117.189 74.2253 117.308 74.1027C117.426 73.9801 117.573 73.9197 117.75 73.9197C117.927 73.9197 118.064 73.9782 118.186 74.097C118.309 74.2159 118.369 74.363 118.369 74.5403C118.369 74.7177 118.31 74.8554 118.192 74.978C118.073 75.1006 117.927 75.161 117.755 75.161L117.75 75.1553ZM117.216 80.4902V75.7307H118.29V80.4902H117.216Z" fill="white"/>
<path d="M121.136 80.4902V73.8254H122.21V80.4902H121.136Z" fill="white"/>
<path d="M127.013 80.5845C126.532 80.5845 126.125 80.4808 125.787 80.2789C125.448 80.0771 125.192 79.7866 125.021 79.4168C124.844 79.0471 124.761 78.6094 124.761 78.1076C124.761 77.6058 124.844 77.1682 125.017 76.7928C125.188 76.4192 125.435 76.1325 125.764 75.9307C126.088 75.7288 126.475 75.6307 126.923 75.6307C127.292 75.6307 127.61 75.7005 127.871 75.842C128.136 75.9797 128.338 76.1816 128.481 76.4419H128.511V73.8235H129.585V79.3998H130.125V80.4883H129.011V79.7356H128.678C128.516 80.011 128.294 80.2223 128.016 80.3657C127.736 80.5091 127.406 80.5826 127.015 80.5826H127.021L127.013 80.5845ZM127.194 79.6526C127.596 79.6526 127.916 79.5394 128.151 79.3131C128.386 79.0867 128.509 78.7773 128.509 78.3925V77.8209C128.509 77.436 128.39 77.1267 128.151 76.9003C127.911 76.6739 127.596 76.5607 127.194 76.5607C126.757 76.5607 126.419 76.6984 126.187 76.9739C125.952 77.2493 125.834 77.6285 125.834 78.1114C125.834 78.5943 125.952 78.9735 126.187 79.2489C126.422 79.5243 126.757 79.662 127.194 79.662V79.6526Z" fill="white"/>
</svg>
